<?xml version="1.0" standalone="no"?><svg xmlns="http://www.w3.org/2000/svg" viewBox="0 0 1440 320"><path fill="#0099ff" fill-opacity="1" d="M0,160L30,170.7C60,181,120,203,180,218.7C240,235,300,245,360,229.3C420,213,480,171,540,160C600,149,660,171,720,197.3C780,224,840,256,900,234.7C960,213,1020,139,1080,133.3C1140,128,1200,192,1260,197.3C1320,203,1380,149,1410,122.7L1440,96L1440,320L1410,320C1380,320,1320,320,1260,320C1200,320,1140,320,1080,320C1020,320,960,320,900,320C840,320,780,320,720,320C660,320,600,320,540,320C480,320,420,320,360,320C300,320,240,320,180,320C120,320,60,320,30,320L0,320Z"></path></svg>